<mxGraphModel dx="1190" dy="757" grid="1" gridSize="10" guides="1" tooltips="1" connect="1" arrows="1" fold="1" page="1" pageScale="1" pageWidth="850" pageHeight="1100" background="#ffffff">
  <root>
    <mxCell id="0"/>
    <mxCell id="1" parent="0"/>
    <mxCell id="c0ca89af-1ff3-4fa3-a73c-b86d6c62f646" value="PSU" style="rounded=1;shape=rectangle;whiteSpace=wrap;html=1;fillColor=#2E9CCA;" vertex="1" parent="1">
      <mxGeometry x="200" y="100" width="100" height="50" as="geometry"/>
    </mxCell>
    <mxCell id="70664ea9-3fc7-4e55-8415-33707b9c9801" value="ESP32" style="rounded=1;shape=rectangle;whiteSpace=wrap;html=1;fillColor=#2E9CCA;" vertex="1" parent="1">
      <mxGeometry x="200" y="200" width="100" height="50" as="geometry"/>
    </mxCell>
    <mxCell id="4d6dd159-3ac5-46cb-9805-f1f919694329" value="BME280" style="rounded=1;shape=rectangle;whiteSpace=wrap;html=1;fillColor=#2E9CCA;" vertex="1" parent="1">
      <mxGeometry x="200" y="300" width="100" height="50" as="geometry"/>
    </mxCell>
    <mxCell style="edgeStyle=entityRelationEdgeStyle;rounded=1;orthogonalLoop=1;jettySize=auto;html=1;strokeColor=#000000;" value="power_out - power" edge="1" parent="1" source="c0ca89af-1ff3-4fa3-a73c-b86d6c62f646" target="70664ea9-3fc7-4e55-8415-33707b9c9801">
      <mxGeometry relative="1" as="geometry"/>
    </mxCell>
    <mxCell style="edgeStyle=entityRelationEdgeStyle;rounded=1;orthogonalLoop=1;jettySize=auto;html=1;strokeColor=#000000;" value="power_out - power" edge="1" parent="1" source="c0ca89af-1ff3-4fa3-a73c-b86d6c62f646" target="4d6dd159-3ac5-46cb-9805-f1f919694329">
      <mxGeometry relative="1" as="geometry"/>
    </mxCell>
    <mxCell style="edgeStyle=entityRelationEdgeStyle;rounded=1;orthogonalLoop=1;jettySize=auto;html=1;strokeColor=#000000;" value="i2c - i2c" edge="1" parent="1" source="70664ea9-3fc7-4e55-8415-33707b9c9801" target="4d6dd159-3ac5-46cb-9805-f1f919694329">
      <mxGeometry relative="1" as="geometry"/>
    </mxCell>
  </root>
</mxGraphModel>
